<svg width="16" height="16" viewBox="0 0 16 16" fill="none" xmlns="http://www.w3.org/2000/svg">
<path d="M12.3333 3H13.6667C14.0203 3 14.3594 3.14048 14.6095 3.39052C14.8595 3.64057 15 3.97971 15 4.33333V13C15 13.3536 14.8595 13.6928 14.6095 13.9428C14.3594 14.1929 14.0203 14.3333 13.6667 14.3333H2.33333C1.97971 14.3333 1.64057 14.1929 1.39052 13.9428C1.14048 13.6928 1 13.3536 1 13V4.33333C1 3.97971 1.14048 3.64057 1.39052 3.39052C1.64057 3.14048 1.97971 3 2.33333 3H3.66667V3.33333C3.66667 3.68696 3.80714 4.02609 4.05719 4.27614C4.30724 4.52619 4.64638 4.66667 5 4.66667C5.35362 4.66667 5.69276 4.52619 5.94281 4.27614C6.19286 4.02609 6.33333 3.68696 6.33333 3.33333V3H9.66667V3.33333C9.66667 3.50843 9.70115 3.68181 9.76816 3.84358C9.83517 4.00535 9.93338 4.15233 10.0572 4.27614C10.181 4.39995 10.328 4.49817 10.4898 4.56517C10.6515 4.63218 10.8249 4.66667 11 4.66667C11.1751 4.66667 11.3485 4.63218 11.5102 4.56517C11.672 4.49817 11.819 4.39995 11.9428 4.27614C12.0666 4.15233 12.1648 4.00535 12.2318 3.84358C12.2988 3.68181 12.3333 3.50843 12.3333 3.33333V3ZM11.6667 3V3.33333C11.6667 3.51014 11.5964 3.67971 11.4714 3.80474C11.3464 3.92976 11.1768 4 11 4C10.8232 4 10.6536 3.92976 10.5286 3.80474C10.4036 3.67971 10.3333 3.51014 10.3333 3.33333V3H11.6667ZM4.33333 3H5.66667V3.33333C5.66667 3.51014 5.59643 3.67971 5.4714 3.80474C5.34638 3.92976 5.17681 4 5 4C4.82319 4 4.65362 3.92976 4.5286 3.80474C4.40357 3.67971 4.33333 3.51014 4.33333 3.33333V3ZM2.66667 6V11.6667C2.66667 12.0203 2.80714 12.3594 3.05719 12.6095C3.30724 12.8595 3.64638 13 4 13H12C12.3536 13 12.6928 12.8595 12.9428 12.6095C13.1929 12.3594 13.3333 12.0203 13.3333 11.6667V6H2.66667Z" fill="white"/>
<path d="M5 1.33337C5.44444 1.33337 5.66667 1.5556 5.66667 2.00004V3.33337C5.66667 3.77782 5.44444 4.00004 5 4.00004C4.55555 4.00004 4.33333 3.77782 4.33333 3.33337V2.00004C4.33333 1.5556 4.55555 1.33337 5 1.33337Z" fill="white"/>
<path d="M11 1.33337C11.4444 1.33337 11.6667 1.5556 11.6667 2.00004V3.33337C11.6667 3.77782 11.4444 4.00004 11 4.00004C10.5556 4.00004 10.3333 3.77782 10.3333 3.33337V2.00004C10.3333 1.5556 10.5556 1.33337 11 1.33337Z" fill="white"/>
</svg>
