<?xml version="1.0" standalone="no"?><!DOCTYPE svg PUBLIC "-//W3C//DTD SVG 1.1//EN" "http://www.w3.org/Graphics/SVG/1.1/DTD/svg11.dtd"><svg t="1623668793383" class="icon" viewBox="0 0 1024 1024" version="1.1" xmlns="http://www.w3.org/2000/svg" p-id="3258" xmlns:xlink="http://www.w3.org/1999/xlink" width="200" height="200"><defs><style type="text/css"></style></defs><path d="M905.1 871.3L741.5 707.6c55.2-67 88.3-152.8 88.3-246.3 0-214-173.5-387.5-387.5-387.5S54.8 247.3 54.8 461.4s173.5 387.5 387.5 387.5c87.7 0 168.6-29.1 233.5-78.3l165 165c17.8 17.8 46.6 17.8 64.3 0 17.8-17.8 17.8-46.6 0-64.3zM127.9 461.4c0-173.6 140.8-314.4 314.4-314.4s314.4 140.8 314.4 314.4-140.8 314.4-314.4 314.4S127.9 635 127.9 461.4z" p-id="3259"></path></svg>