<?xml version="1.0" standalone="no"?><!DOCTYPE svg PUBLIC "-//W3C//DTD SVG 1.1//EN" "http://www.w3.org/Graphics/SVG/1.1/DTD/svg11.dtd"><svg t="1627453571914" class="icon" viewBox="0 0 1155 1024" version="1.1" xmlns="http://www.w3.org/2000/svg" p-id="3654" xmlns:xlink="http://www.w3.org/1999/xlink" width="225.5859375" height="200"><defs><style type="text/css">@font-face { font-family: feedback-iconfont; src: url("//at.alicdn.com/t/font_1031158_1uhr8ri0pk5.eot?#iefix") format("embedded-opentype"), url("//at.alicdn.com/t/font_1031158_1uhr8ri0pk5.woff2") format("woff2"), url("//at.alicdn.com/t/font_1031158_1uhr8ri0pk5.woff") format("woff"), url("//at.alicdn.com/t/font_1031158_1uhr8ri0pk5.ttf") format("truetype"), url("//at.alicdn.com/t/font_1031158_1uhr8ri0pk5.svg#iconfont") format("svg"); }
</style></defs><path d="M766.62994 853.964423l-157.005811 157.005812a44.648528 44.648528 0 0 1-63.047647 0l-157.005812-157.005812a44.648528 44.648528 0 0 1 0-63.047646l157.005812-157.005812a44.648528 44.648528 0 0 1 63.047647 0l157.005811 157.005812a44.648528 44.648528 0 0 1 0 63.047646z" fill="#BDE1FF" p-id="3655"></path><path d="M1067.148877 889.290731H88.806412A89.051734 89.051734 0 0 1 0 800.238997v-711.432585A89.051734 89.051734 0 0 1 88.806412 0H1067.148877a89.051734 89.051734 0 0 1 88.806412 88.806412v711.432585a89.051734 89.051734 0 0 1-88.806412 89.051734z" fill="#BDE1FF" p-id="3656"></path><path d="M200.18241 466.111004a66.72747 66.72747 0 1 0 66.482148-66.72747A66.482148 66.482148 0 0 0 200.18241 466.111004zM489.171232 466.111004a89.051734 89.051734 0 1 0 88.806413-89.051734A88.806412 88.806412 0 0 0 489.171232 466.111004zM844.642203 466.111004a66.72747 66.72747 0 1 0 66.72747-66.72747A66.72747 66.72747 0 0 0 844.642203 466.111004z" fill="#FFFFFF" p-id="3657"></path></svg>