<?xml version="1.0" standalone="no"?><!DOCTYPE svg PUBLIC "-//W3C//DTD SVG 1.1//EN" "http://www.w3.org/Graphics/SVG/1.1/DTD/svg11.dtd"><svg t="1627453583518" class="icon" viewBox="0 0 1024 1024" version="1.1" xmlns="http://www.w3.org/2000/svg" p-id="3942" xmlns:xlink="http://www.w3.org/1999/xlink" width="200" height="200"><defs><style type="text/css">@font-face { font-family: feedback-iconfont; src: url("//at.alicdn.com/t/font_1031158_1uhr8ri0pk5.eot?#iefix") format("embedded-opentype"), url("//at.alicdn.com/t/font_1031158_1uhr8ri0pk5.woff2") format("woff2"), url("//at.alicdn.com/t/font_1031158_1uhr8ri0pk5.woff") format("woff"), url("//at.alicdn.com/t/font_1031158_1uhr8ri0pk5.ttf") format("truetype"), url("//at.alicdn.com/t/font_1031158_1uhr8ri0pk5.svg#iconfont") format("svg"); }
</style></defs><path d="M512 512m-512 0a512 512 0 1 0 1024 0 512 512 0 1 0-1024 0Z" fill="#FDEBED" p-id="3943"></path><path d="M663.04 682.24c2.56 15.36-2.56 29.44-15.36 38.4-12.8 8.96-28.16 10.24-42.24 2.56L524.8 679.68c-11.52-6.4-25.6-6.4-38.4 0l-80.64 43.52c-12.8 7.68-29.44 6.4-42.24-2.56s-19.2-24.32-15.36-38.4l16.64-88.32c2.56-12.8-1.28-26.88-11.52-35.84l-66.56-61.44c-11.52-10.24-15.36-25.6-10.24-39.68 5.12-14.08 17.92-24.32 32-26.88l90.88-11.52c12.8-1.28 25.6-10.24 30.72-21.76l38.4-81.92c8.96-19.2 33.28-28.16 52.48-17.92 7.68 3.84 14.08 10.24 17.92 17.92l38.4 81.92c5.12 12.8 17.92 20.48 30.72 21.76l90.88 11.52c15.36 1.28 28.16 11.52 32 26.88 5.12 14.08 1.28 30.72-10.24 39.68l-66.56 61.44c-10.24 8.96-14.08 23.04-11.52 35.84l20.48 88.32z" fill="#ffffff" p-id="3944"></path></svg>