<?xml version="1.0" standalone="no"?><!DOCTYPE svg PUBLIC "-//W3C//DTD SVG 1.1//EN" "http://www.w3.org/Graphics/SVG/1.1/DTD/svg11.dtd"><svg t="1623681114853" class="icon" viewBox="0 0 1024 1024" version="1.1" xmlns="http://www.w3.org/2000/svg" p-id="3566" xmlns:xlink="http://www.w3.org/1999/xlink" width="200" height="200"><defs><style type="text/css"></style></defs><path d="M840.245895 35.489684c-8.811789-13.258105-22.069895-26.489263-39.747369-26.489263H226.600421c-17.677474 0-35.328 8.838737-39.747368 26.489263L10.266947 322.425263c-8.838737 17.677474-4.419368 39.747368 4.419369 52.978526l459.129263 525.312c17.623579 17.704421 44.139789 22.096842 66.209684 4.446316l4.392421-4.446316 463.548632-529.731368c13.258105-13.231158 13.258105-35.328 4.419368-52.978526L840.245895 35.489684z" fill="#F7CC95" p-id="3567"></path><path d="M1007.966316 371.819789L544.417684 901.578105l-4.392421 4.392421c-6.144 4.931368-12.665263 7.949474-19.159579 9.647158V9.781895h279.632842c17.650526 0 30.908632 13.258105 39.747369 26.51621l172.166737 282.516211c8.811789 17.650526 8.811789 39.747368-4.446316 53.005473z" fill="#F4C485" p-id="3568"></path><path d="M822.999579 400.384L553.768421 700.604632c-17.704421 17.650526-48.586105 22.069895-66.290526 4.392421L213.800421 400.384a44.463158 44.463158 0 0 1 4.419368-66.236632 44.463158 44.463158 0 0 1 66.236632 4.446316l238.430316 260.446316 238.376421-260.446316c17.650526-17.704421 48.586105-22.096842 66.236631-4.446316 4.419368 4.446316 8.811789 13.285053 13.258106 22.096843-0.053895 13.258105-4.500211 30.908632-17.758316 44.139789z m0 0" fill="#835023" p-id="3569"></path></svg>