<?xml version="1.0" standalone="no"?><!DOCTYPE svg PUBLIC "-//W3C//DTD SVG 1.1//EN" "http://www.w3.org/Graphics/SVG/1.1/DTD/svg11.dtd"><svg t="1623667435278" class="icon" viewBox="0 0 1024 1024" version="1.1" xmlns="http://www.w3.org/2000/svg" p-id="3373" xmlns:xlink="http://www.w3.org/1999/xlink" width="200" height="200"><defs><style type="text/css"></style></defs><path d="M0 919.844571V294.692571h1019.684571v625.152c0 57.270857-48.274286 104.155429-107.300571 104.155429H107.373714C48.274286 1024 0 977.115429 0 919.844571" fill="#D6E0F8" p-id="3374"></path><path d="M1019.684571 177.225143v156.086857H0.073143V177.225143C0 119.954286 48.274286 73.142857 107.300571 73.142857h805.010286c59.026286 0 107.300571 46.811429 107.300572 104.082286" fill="#F7AF2B" p-id="3375"></path><path d="M658.285714 219.428571a73.142857 73.142857 0 1 0 146.285715 0 73.142857 73.142857 0 0 0-146.285715 0M219.428571 219.428571a73.142857 73.142857 0 1 0 146.285715 0 73.142857 73.142857 0 0 0-146.285715 0" fill="#CA8911" p-id="3376"></path><path d="M274.578286 2.925714c-29.184 0-53.028571 21.650286-53.028572 48.054857v120.32c0 26.477714 23.844571 48.128 53.028572 48.128 29.110857 0 52.955429-21.650286 52.955428-48.128V50.980571c0-26.404571-23.844571-48.128-52.955428-48.128m476.964571 0c-29.110857 0-52.955429 21.723429-52.955428 48.128v120.32c0 26.477714 23.844571 48.128 52.955428 48.128 29.184 0 53.028571-21.650286 53.028572-48.128V50.980571c0-26.404571-23.844571-48.128-53.028572-48.128" fill="#D6E0F8" p-id="3377"></path><path d="M698.221714 877.714286H804.571429v-109.714286H698.221714V877.714286z m-159.597714 0h106.349714v-109.714286H538.624V877.714286z m-159.597714 0h106.349714v-109.714286H379.026286V877.714286zM219.428571 877.714286h106.422858v-109.714286H219.428571V877.714286z m478.793143-164.571429H804.571429v-109.714286H698.221714v109.714286z m-159.597714 0h106.349714v-109.714286H538.624v109.714286z m-159.597714 0h106.349714v-109.714286H379.026286v109.714286zM219.428571 713.142857h106.422858v-109.714286H219.428571v109.714286zM698.221714 548.571429H804.571429V438.857143H698.221714v109.714286z m-159.597714 0h106.349714V438.857143H538.624v109.714286z m-159.597714 0h106.349714V438.857143H379.026286v109.714286zM219.428571 548.571429h106.422858V438.857143H219.428571v109.714286z" fill="#6C83FC" p-id="3378"></path></svg>