<svg height="200" viewBox="0 0 1024 1024" width="200" xmlns="http://www.w3.org/2000/svg"><path d="m829.2 262.2h-141.9l-41.7-66.6c0-9.2-24.2-16.6-33.4-16.6h-200.4c-9.2 0-33.4 7.5-33.4 16.6l-41.7 66.6h-141.9c-36.9 0-66.8 29.8-66.8 66.6v449.6c0 36.8 29.9 66.6 66.8 66.6h634.4c36.9 0 66.8-29.8 66.8-66.6v-449.6c0-36.8-29.9-66.6-66.8-66.6zm-100.2 283.1c0 119.5-97.2 216.4-217 216.4s-217-96.9-217-216.5 97.2-216.5 217-216.5c119.9.1 217 97 217 216.6z" fill="#90baff"/><path d="m361.8 545.3c0 82.8 67.3 149.9 150.2 149.9s150.2-67.1 150.2-149.9-67.2-149.8-150.2-149.8-150.2 67-150.2 149.8z" fill="#3c76fe"/></svg>