<?xml version="1.0" standalone="no"?><!DOCTYPE svg PUBLIC "-//W3C//DTD SVG 1.1//EN" "http://www.w3.org/Graphics/SVG/1.1/DTD/svg11.dtd"><svg t="1631715240223" class="icon" viewBox="0 0 1024 1024" version="1.1" xmlns="http://www.w3.org/2000/svg" p-id="8680" xmlns:xlink="http://www.w3.org/1999/xlink" width="200" height="200"><defs><style type="text/css"></style></defs><path d="M829.2 262.2H687.3l-41.7-66.6c0-9.2-24.2-16.6-33.4-16.6H411.8c-9.2 0-33.4 7.5-33.4 16.6l-41.7 66.6H194.8c-36.9 0-66.8 29.8-66.8 66.6v449.6c0 36.8 29.9 66.6 66.8 66.6h634.4c36.9 0 66.8-29.8 66.8-66.6V328.8c0-36.8-29.9-66.6-66.8-66.6zM729 545.3c0 119.5-97.2 216.4-217 216.4s-217-96.9-217-216.5 97.2-216.5 217-216.5c119.9 0.1 217 97 217 216.6z" fill="#90BAFF" p-id="8681"></path><path d="M361.8 545.3c0 82.8 67.3 149.9 150.2 149.9s150.2-67.1 150.2-149.9S595 395.5 512 395.5s-150.2 67-150.2 149.8z" fill="#3C76FE" p-id="8682"></path></svg>