<svg height="200" viewBox="0 0 1024 1024" width="200" xmlns="http://www.w3.org/2000/svg"><path d="m650.971429 209.67619 43.885714 90.209524 265.752381 39.009524c26.819048 4.87619 51.2 21.942857 58.514286 46.32381 9.752381 24.380952 2.438095 53.638095-17.066667 70.704762l-195.047619 190.171428 46.323809 265.752381c4.87619 26.819048-7.314286 53.638095-29.257143 68.266667-12.190476 7.314286-26.819048 12.190476-41.447619 12.190476-12.190476 0-24.380952-2.438095-36.571428-9.752381l-231.619048-121.904762-117.028571 60.952381c-80.457143-121.904762-102.4-285.257143-63.390476-412.038095 46.32381-156.038095 156.038095-263.314286 316.952381-299.885715z" fill="#4b9bbe"/><path d="m499.809524 112.152381c9.752381 0 29.257143 4.87619 34.133333 12.190476l102.4 216.990476c4.87619 12.190476 17.066667 19.504762 31.695238 21.942857l248.685715 34.133334c9.752381 2.438095 17.066667 7.314286 19.504761 14.628571 2.438095 7.314286 0 14.628571-4.87619 21.942857l-185.295238 168.228572c-9.752381 9.752381-14.628571 21.942857-12.190476 34.133333l46.323809 246.247619c2.438095 7.314286-2.438095 17.066667-9.752381 21.942857-4.87619 2.438095-9.752381 4.87619-14.628571 4.876191-4.87619 0-7.314286 0-12.190476-2.438095l-209.676191-121.904762c-9.752381-2.438095-14.628571-4.87619-21.942857-4.876191-7.314286 0-12.190476 2.438095-19.504762 4.876191l-212.114286 121.904762c-4.87619 2.438095-7.314286 2.438095-12.190476 2.438095s-9.752381-2.438095-14.628571-4.876191c-7.314286-4.87619-9.752381-12.190476-9.752381-21.942857l48.761905-246.247619c2.438095-12.190476-2.438095-26.819048-12.190477-34.133333l-182.857142-165.790476c-4.87619-4.87619-7.314286-14.628571-4.876191-21.942858 2.438095-7.314286 9.752381-14.628571 19.504762-14.628571l246.247619-34.133333c14.628571-2.438095 24.380952-9.752381 31.695238-21.942857l102.4-216.990477c4.87619-7.314286 12.190476-12.190476 21.942857-12.190476zm12.190476-87.771429c-29.257143 0-53.638095 14.628571-65.828571 41.447619l-117.028572 234.057143-265.752381 39.009524c-26.819048 4.87619-51.2 21.942857-58.514286 46.32381-9.752381 24.380952-2.438095 53.638095 17.066667 70.704762l195.047619 190.171428-46.323809 265.752381c-4.87619 26.819048 7.314286 53.638095 29.257143 68.266667 12.190476 7.314286 26.819048 12.190476 41.447619 12.190476 12.190476 0 24.380952-2.438095 36.571428-9.752381l231.619048-121.904762 231.619047 121.904762c12.190476 4.87619 24.380952 9.752381 36.571429 9.752381 14.628571 0 29.257143-4.87619 41.447619-12.190476 21.942857-14.628571 34.133333-41.447619 29.257143-68.266667l-46.32381-263.314286 195.047619-190.171428c19.504762-19.504762 26.819048-46.32381 17.066667-70.704762s-31.695238-43.885714-58.514286-46.32381l-265.752381-39.009523-117.028571-234.057143c-7.314286-29.257143-31.695238-43.885715-60.952381-43.885715z" fill="#3e6d8d"/></svg>