<svg height="200" viewBox="0 0 1024 1024" width="200" xmlns="http://www.w3.org/2000/svg"><path d="m395.923761 421.098117a116.044775 114.338234 0 1 0 232.08955 0 116.044775 114.338234 0 1 0 -232.08955 0z" fill="#0b1d27"/><path d="m511.968536.009173a423.862074 423.862074 0 0 0 -426.635203 421.088944 421.728897 421.728897 0 0 0 306.537393 403.810219l-5.33294-77.220971a350.267501 350.267501 0 0 1 -228.889786-326.589248 354.320536 354.320536 0 0 1 708.641071 0 350.267501 350.267501 0 0 1 -228.889786 326.589248l-5.33294 77.220971a421.728897 421.728897 0 0 0 306.537393-403.810219 423.862074 423.862074 0 0 0 -426.635202-421.088944z" fill="#72cbfd"/><path d="m511.968536 147.83827a272.406577 272.406577 0 0 0 -125.217432 516.65523 183.239819 183.239819 0 0 1 24.744842-67.195044 202.651721 202.651721 0 1 1 304.830852-175.560386 201.371815 201.371815 0 0 1 -103.885672 175.560386 183.239819 183.239819 0 0 1 24.744842 67.834997 272.406577 272.406577 0 0 0 -125.217432-517.295183z" fill="#72cbfd"/><path d="m536.50006 1023.933658h-49.063048a44.156743 44.156743 0 0 1 -45.863285-36.263992l-30.717734-263.873873c-8.319386-78.714195 37.117263-152.522085 101.112543-152.522084s109.431929 73.80789 101.112543 152.522084l-30.717735 263.873873a44.156743 44.156743 0 0 1 -45.863284 36.263992z" fill="#0b1d27"/></svg>