<?xml version="1.0" standalone="no"?><!DOCTYPE svg PUBLIC "-//W3C//DTD SVG 1.1//EN" "http://www.w3.org/Graphics/SVG/1.1/DTD/svg11.dtd"><svg t="1624009411787" class="icon" viewBox="0 0 1024 1024" version="1.1" xmlns="http://www.w3.org/2000/svg" p-id="12921" xmlns:xlink="http://www.w3.org/1999/xlink" width="200" height="200"><defs><style type="text/css"></style></defs><path d="M512 512m-512 0a512 512 0 1 0 1024 0 512 512 0 1 0-1024 0Z" fill="#E4F4FE" p-id="12922"></path><path d="M511.919158 269.608421A242.445474 242.445474 0 0 0 269.473684 512.080842 242.445474 242.445474 0 0 0 511.919158 754.526316a242.472421 242.472421 0 0 0 0-484.917895z m97.010526 266.186105H516.850526a24.144842 24.144842 0 0 1-29.157052-23.713684v-145.488842a24.252632 24.252632 0 1 1 48.505263 0v120.724211h72.704a24.252632 24.252632 0 1 1 0 48.478315z" fill="#4DB1FA" p-id="12923"></path></svg>