<svg height="200" viewBox="0 0 1024 1024" width="200" xmlns="http://www.w3.org/2000/svg"><path d="m0 512a512 512 0 1 0 1024 0 512 512 0 1 0 -1024 0z" fill="#e4f4fe"/><path d="m511.919158 269.608421a242.445474 242.445474 0 0 0 -242.445474 242.472421 242.445474 242.445474 0 0 0 242.445474 242.445474 242.472421 242.472421 0 0 0 0-484.917895zm97.010526 266.186105h-92.079158a24.144842 24.144842 0 0 1 -29.157052-23.713684v-145.488842a24.252632 24.252632 0 1 1 48.505263 0v120.724211h72.704a24.252632 24.252632 0 1 1 0 48.478315z" fill="#4db1fa"/></svg>