<svg height="200" viewBox="0 0 1024 1024" width="200" xmlns="http://www.w3.org/2000/svg"><path d="m105.472 512.512a410.624 410.624 0 1 0 821.248 0 410.624 410.624 0 1 0 -821.248 0z" fill="#f1f7ff"/><path d="m693.76 293.376h-164.352c-22.528 0-40.96 18.432-40.96 40.96s18.432 40.96 40.96 40.96h79.872l-74.24 74.24c-1.024 1.024-1.536 2.048-2.048 3.072-24.576-16.384-53.76-26.112-85.504-26.112-84.992 0-154.112 69.12-154.112 154.112s69.12 154.112 154.112 154.112 154.112-69.12 154.112-154.112c0-31.744-9.728-60.928-26.112-85.504 1.024-1.024 2.56-1.024 3.072-2.048l74.24-74.24v79.36c0 22.528 18.432 40.96 40.96 40.96s40.96-18.432 40.96-40.96v-163.328c0-23.04-17.92-41.472-40.96-41.472zm-246.272 379.904c-50.688 0-92.16-41.472-92.16-92.16s41.472-92.16 92.16-92.16 92.16 41.472 92.16 92.16-40.96 92.16-92.16 92.16z" fill="#47afff"/></svg>