<?xml version="1.0" standalone="no"?><!DOCTYPE svg PUBLIC "-//W3C//DTD SVG 1.1//EN" "http://www.w3.org/Graphics/SVG/1.1/DTD/svg11.dtd"><svg t="1623676823929" class="icon" viewBox="0 0 1024 1024" version="1.1" xmlns="http://www.w3.org/2000/svg" p-id="3771" xmlns:xlink="http://www.w3.org/1999/xlink" width="200" height="200"><defs><style type="text/css"></style></defs><path d="M512 512m-512 0a512 512 0 1 0 1024 0 512 512 0 1 0-1024 0Z" fill="#DEE3FF" p-id="3772"></path><path d="M210.2272 307.9168l293.5808 196.573867 292.932267-196.539734c3.515733 7.748267 5.393067 16.1792 5.393066 24.849067v358.4A59.733333 59.733333 0 0 1 742.4 750.933333h-477.866667A59.733333 59.733333 0 0 1 204.8 691.2V332.8c0-8.669867 1.877333-17.134933 5.4272-24.8832z" fill="#5F79FF" fill-opacity=".6" p-id="3773"></path><path d="M742.4 273.066667a59.733333 59.733333 0 0 1 59.733333 59.733333v39.7312l-298.325333 200.226133L204.8 372.5312V332.8A59.733333 59.733333 0 0 1 264.533333 273.066667z" fill="#5F79FF" fill-opacity=".6" p-id="3774"></path></svg>