<svg height="200" viewBox="0 0 1024 1024" width="200" xmlns="http://www.w3.org/2000/svg"><path d="m0 512a512 512 0 1 0 1024 0 512 512 0 1 0 -1024 0z" fill="#dee3ff"/><g fill="#5f79ff" fill-opacity=".6"><path d="m210.2272 307.9168 293.5808 196.573867 292.932267-196.539734c3.515733 7.748267 5.393067 16.1792 5.393066 24.849067v358.4a59.733333 59.733333 0 0 1 -59.733333 59.733333h-477.866667a59.733333 59.733333 0 0 1 -59.733333-59.733333v-358.4c0-8.669867 1.877333-17.134933 5.4272-24.8832z"/><path d="m742.4 273.066667a59.733333 59.733333 0 0 1 59.733333 59.733333v39.7312l-298.325333 200.226133-299.008-200.226133v-39.7312a59.733333 59.733333 0 0 1 59.733333-59.733333z"/></g></svg>