<svg width="632" height="625" viewBox="0 0 632 625" fill="none" xmlns="http://www.w3.org/2000/svg">
<g clip-path="url(#clip0_1_2)">
<path d="M295.667 371.511C293.572 372.526 291.045 372.458 289.054 371.02L244.871 341.063C241.846 339.018 241.042 334.88 243.087 331.856C245.132 328.831 249.27 328.027 252.294 330.072L296.478 360.03C299.502 362.075 300.307 366.213 298.261 369.237C297.579 370.307 296.64 371.039 295.667 371.511ZM266.338 385.728C264.243 386.744 261.715 386.676 259.724 385.238L215.541 355.281C212.517 353.235 211.712 349.098 213.758 346.073C215.803 343.049 219.94 342.244 222.965 344.29L267.148 374.247C270.172 376.293 270.977 380.43 268.932 383.455C268.324 384.488 267.385 385.221 266.338 385.728ZM237.083 399.91C234.988 400.925 232.46 400.857 230.47 399.42L186.286 369.462C183.262 367.417 182.457 363.279 184.503 360.255C186.548 357.23 190.686 356.426 193.71 358.471L237.893 388.429C240.918 390.474 241.722 394.612 239.677 397.636C238.994 398.706 238.13 399.402 237.083 399.91Z" fill="#66331E"/>
<path d="M458.174 159.675L401.984 186.914C398.692 188.51 394.693 187.122 393.097 183.83C391.501 180.538 392.889 176.538 396.181 174.942L452.371 147.704C487.312 130.766 501.961 88.5517 485.024 53.6105C468.086 18.6693 425.871 4.02001 390.93 20.9579L158.987 133.394C155.694 134.99 151.695 133.602 150.099 130.31C148.503 127.018 149.891 123.018 153.183 121.423L385.052 9.02292C426.578 -11.1067 476.79 6.31824 496.92 47.8436C517.05 89.369 499.699 139.546 458.174 159.675Z" fill="#66331E"/>
<path d="M119.031 225.575L431.332 74.1859C434.549 72.6264 438.438 73.9756 439.997 77.1929C477.79 155.156 445.253 248.916 367.29 286.709L265.684 335.963C201.338 367.155 161.801 419.216 177.687 451.988C193.573 484.759 258.86 486.006 323.28 454.778L384.558 425.073C387.776 423.514 391.664 424.863 393.223 428.08C421.586 486.59 397.181 557.096 338.597 585.495L302.084 603.195C198.084 653.609 72.8851 610.163 22.4703 506.162L21.9988 505.189C-28.416 401.189 15.0308 275.99 119.031 225.575Z" fill="#EF6141"/>
<path d="M185.554 462.497C144.578 501.487 85.1465 517.083 29.7125 497.847C25.0467 496.227 20.6439 494.388 16.2797 492.438C18.0115 496.773 19.8567 500.961 21.924 505.226L22.3955 506.198C60.6238 585.059 141.748 629.081 224.109 623.807C256.467 584.004 267.708 528.658 251.651 476.472C223.088 479.692 199.011 475.008 185.554 462.497ZM202.98 184.881L119.031 225.575C90.2255 239.539 66.0715 259.287 47.1907 282.67C81.0873 347.829 157.621 377.998 228.972 357.825C239.928 349.927 252.216 342.492 265.684 335.963L290.973 323.704C236.905 296.228 203.506 242.008 202.98 184.881Z" fill="#F77D69"/>
<path d="M380.022 155.332C382.523 160.491 386.971 164.446 392.387 166.326C397.804 168.205 403.746 167.856 408.905 165.355C414.064 162.854 418.019 158.406 419.899 152.99C421.778 147.573 421.429 141.631 418.928 136.472C416.427 131.313 411.979 127.358 406.562 125.478C401.146 123.599 395.204 123.948 390.045 126.449C384.885 128.95 380.931 133.398 379.051 138.815C377.171 144.231 377.521 150.173 380.022 155.332Z" fill="#66331E"/>
<path d="M351.802 479.114L356.801 480.849C392.572 493.262 432.214 475.155 445.071 439.538C458.122 403.366 439.123 363.602 402.944 351.109L392.28 347.409C367.617 338.85 354.56 311.915 363.119 287.253L381.97 232.93C394.576 196.603 434.231 177.38 470.558 189.987L501.552 200.742C602.311 235.708 655.627 345.694 620.625 446.378C584.272 551.136 469.946 606.556 365.263 570.166L335.824 559.95C312.717 551.932 300.458 526.642 308.476 503.536L309.941 499.314C315.914 482.281 334.62 473.214 351.802 479.114Z" fill="#FFEDCC"/>
<path d="M425.835 364.592C419.36 358.86 411.571 354.227 402.906 351.22L392.241 347.52C367.579 338.961 354.522 312.026 363.08 287.364L381.931 233.041C394.538 196.714 434.193 177.491 470.519 190.098L501.513 200.853C515.733 205.788 529.116 212.237 541.367 219.973C540.204 223.864 538.965 227.79 537.541 231.715C515.141 296.444 472.001 345.077 425.835 364.592ZM382.525 484.735C409.833 483.694 435.254 466.751 445.033 439.649C446.38 435.947 447.393 432.129 448.072 428.381C488.14 433.075 535.019 425.135 580.136 403.264C598.916 394.16 615.932 383.324 630.992 371.312C632.547 396.061 629.297 421.569 620.698 446.528C602.193 499.851 563.43 540.356 516.041 562.496C507.068 560.378 498.027 557.738 488.917 554.577C444.406 539.193 407.602 513.974 382.525 484.735Z" fill="#FFC48C"/>
</g>
<defs>
<clipPath id="clip0_1_2">
<rect width="632" height="625" rx="160" fill="white"/>
</clipPath>
</defs>
</svg>
