<svg height="200" viewBox="0 0 1024 1024" width="200" xmlns="http://www.w3.org/2000/svg"><path d="m550.990769 10.581333 380.717949 216.930462a78.769231 78.769231 0 0 1 39.778461 68.450461v432.075488a78.769231 78.769231 0 0 1 -39.778461 68.450461l-380.717949 216.930462a78.769231 78.769231 0 0 1 -77.981538 0l-380.717949-216.930462a78.769231 78.769231 0 0 1 -39.778461-68.450461v-432.075488a78.769231 78.769231 0 0 1 39.778461-68.450461l380.717949-216.930462a78.769231 78.769231 0 0 1 77.981538 0z" fill="#868b92"/><path d="m236.307692 512a275.692308 275.692308 0 1 0 551.384616 0 275.692308 275.692308 0 1 0 -551.384616 0z" fill="#c9ccd0"/><path d="m393.846154 512a118.153846 118.153846 0 1 0 236.307692 0 118.153846 118.153846 0 1 0 -236.307692 0z" fill="#fff"/></svg>