<?xml version="1.0" standalone="no"?><!DOCTYPE svg PUBLIC "-//W3C//DTD SVG 1.1//EN" "http://www.w3.org/Graphics/SVG/1.1/DTD/svg11.dtd"><svg t="1627453578667" class="icon" viewBox="0 0 1024 1024" version="1.1" xmlns="http://www.w3.org/2000/svg" p-id="3798" xmlns:xlink="http://www.w3.org/1999/xlink" width="200" height="200"><defs><style type="text/css">@font-face { font-family: feedback-iconfont; src: url("//at.alicdn.com/t/font_1031158_1uhr8ri0pk5.eot?#iefix") format("embedded-opentype"), url("//at.alicdn.com/t/font_1031158_1uhr8ri0pk5.woff2") format("woff2"), url("//at.alicdn.com/t/font_1031158_1uhr8ri0pk5.woff") format("woff"), url("//at.alicdn.com/t/font_1031158_1uhr8ri0pk5.ttf") format("truetype"), url("//at.alicdn.com/t/font_1031158_1uhr8ri0pk5.svg#iconfont") format("svg"); }
</style></defs><path d="M511.634286 1021.19619c-280.380952 0-509.561905-229.180952-509.561905-509.561904s229.180952-509.561905 509.561905-509.561905c31.695238 0 65.828571 2.438095 97.523809 9.752381 19.504762 4.87619 31.695238 21.942857 29.257143 43.885714s-24.380952 31.695238-43.885714 26.819048c-26.819048-4.87619-56.07619-7.314286-82.895238-7.314286-241.371429 0-436.419048 195.047619-436.419048 436.419048s195.047619 436.419048 436.419048 436.419047 436.419048-195.047619 436.419047-436.419047c0-24.380952-2.438095-51.2-7.314285-75.580953-2.438095-19.504762 9.752381-39.009524 29.257142-41.447619 19.504762-2.438095 39.009524 9.752381 41.44762 29.257143 4.87619 29.257143 7.314286 58.514286 7.314285 87.771429 2.438095 280.380952-226.742857 509.561905-507.123809 509.561904z" fill="#3778FF" p-id="3799"></path><path d="M523.824762 918.79619c-216.990476 0-394.971429-175.542857-394.971429-394.971428s175.542857-394.971429 394.971429-394.971429 394.971429 175.542857 394.971428 394.971429-177.980952 394.971429-394.971428 394.971428z m9.752381-248.685714c75.580952 0 134.095238-60.952381 134.095238-134.095238s-60.952381-134.095238-134.095238-134.095238-134.095238 60.952381-134.095238 134.095238 60.952381 134.095238 134.095238 134.095238z" fill="#91B4FF" p-id="3800"></path><path d="M526.262857 570.148571c-7.314286 0-17.066667-2.438095-24.380952-9.752381-14.628571-12.190476-17.066667-36.571429-4.876191-51.2l92.647619-109.714285-24.380952-109.714286c-2.438095-9.752381 0-21.942857 7.314286-29.257143l153.6-197.485714c9.752381-12.190476 24.380952-17.066667 36.571428-12.190476 14.628571 2.438095 24.380952 14.628571 26.819048 29.257143l21.942857 121.904761 117.028571-17.066666c14.628571-2.438095 29.257143 4.87619 36.571429 19.504762 7.314286 12.190476 4.87619 29.257143-2.438095 41.447619l-148.72381 187.733333c-7.314286 9.752381-17.066667 14.628571-29.257143 14.628572h-134.095238l-92.647619 109.714285c-12.190476 7.314286-21.942857 12.190476-31.695238 12.190476z m131.657143-197.485714h104.838095l82.895238-104.838095-60.952381 7.314286c-19.504762 2.438095-36.571429-9.752381-41.447619-29.257143l-12.190476-73.142857-90.209524 119.466666 17.066667 80.457143z" fill="#3778FF" p-id="3801"></path></svg>