<svg height="200" viewBox="0 0 1170 1024" width="228.515625" xmlns="http://www.w3.org/2000/svg"><path d="m1164.580571 401.310476a45.738667 45.738667 0 0 0 -6.777904-14.384762l-192.75581-275.504762a41.350095 41.350095 0 0 0 -34.133333-18.18819h-518.192762a41.984 41.984 0 0 0 -37.010286 23.405714l-189.927619 271.506286c-3.023238 4.388571-5.36381 9.313524-6.826667 14.482286a48.176762 48.176762 0 0 0 8.777143 44.958476l447.683048 531.846095c3.413333 5.851429 8.240762 10.873905 13.994667 14.531048a39.887238 39.887238 0 0 0 51.785142-4.047238 45.153524 45.153524 0 0 0 10.24-15.164953l444.562286-528.335238a48.176762 48.176762 0 0 0 8.582095-45.056z" fill="#a1d6ff"/><path d="m991.427048 308.321524a45.738667 45.738667 0 0 0 -6.826667-14.433524l-192.804571-275.504762a41.350095 41.350095 0 0 0 -33.987048-18.139428h-518.38781a41.935238 41.935238 0 0 0 -36.961523 23.454476l-189.830096 271.36c-3.072 4.437333-5.36381 9.362286-6.875428 14.531047a48.176762 48.176762 0 0 0 8.777143 44.958477l447.634285 531.846095c3.413333 5.90019 8.289524 10.873905 13.994667 14.531047a39.984762 39.984762 0 0 0 51.833905-4.096 45.153524 45.153524 0 0 0 10.24-15.213714l444.513524-528.237714a48.176762 48.176762 0 0 0 8.679619-45.056z" fill="#3a72ff"/><g fill="#fff"><path d="m534.089143 658.383238a47.88419 47.88419 0 0 0 2.925714-64.170667l-213.967238-254.195809a40.082286 40.082286 0 0 0 -59.489524-3.072 47.88419 47.88419 0 0 0 -2.925714 64.170667l213.918476 254.195809c15.60381 18.529524 42.325333 19.992381 59.538286 3.072z"/><path d="m477.330286 658.383238a47.88419 47.88419 0 0 1 -2.876953-64.170667l213.869715-254.195809a40.082286 40.082286 0 0 1 59.635809-3.072c17.310476 17.456762 18.529524 45.202286 2.925714 64.170667l-213.967238 254.195809a40.131048 40.131048 0 0 1 -59.538285 3.072z"/></g></svg>