<svg fill="none" height="25" viewBox="0 0 25 25" width="25" xmlns="http://www.w3.org/2000/svg"><path d="m20.5138.866437c-.2151-.323684-.5388-.64671-.9704-.64671h-14.01116c-.43158 0-.8625.215789-.97039.64671l-4.311185 7.005263c-.2157895.43158-.107895.97039.107895 1.29342l11.20924 12.82498c.4302.4323 1.0776.5395 1.6164.1086l.1073-.1086 11.3171-12.93287c.3236-.32303.3236-.86251.1079-1.29343z" fill="#f7cc95"/><path d="m24.6086 9.07759-11.3172 12.93351-.1072.1073c-.15.1204-.3092.1941-.4678.2355v-22.11513h6.827c.4309 0 .7546.323684.9704.647368l4.2033 6.897372c.2151.43092.2151.97039-.1085 1.29408z" fill="#f4c485"/><path d="m20.0928 9.775-6.5731 7.3296c-.4322.4309-1.1861.5388-1.6184.1073l-6.68156-7.4369c-.10722-.10921-.19013-.23986-.24329-.38337-.05317-.14352-.07539-.29665-.0652-.44936s.05256-.30153.12431-.43671c.07176-.13518.1713-.25366.29207-.34766.10926-.10718.23995-.19004.38349-.24316.14354-.05311.29669-.07526.44939-.06501.15271.01025.30153.05268.43668.12449.13516.07182.25359.17141.34755.29223l5.82106 6.35855 5.8197-6.35855c.4309-.43224 1.1862-.53947 1.6171-.10855.1079.10855.2152.32434.3237.53947-.0013.32369-.1099.75461-.4335 1.07763z" fill="#835023"/></svg>